<svg xmlns="http://www.w3.org/2000/svg" viewBox="0 0 581.79 175.1"><defs><style>.cls-1{fill:#2775f6;fill-rule:evenodd;}</style></defs><title>Asset 1-01</title><g id="Layer_2" data-name="Layer 2"><g id="图层_1" data-name="图层 1"><path class="cls-1" d="M90,24.16c-5.33,1.46-9.27,13.23-25.13,30.44s-37.07,26.5-51.74,32S.05,106.21.05,106.21c.79,13.94,8.33,25.91,15.07,29.27,6.11,3,10.31,2,13.28,1.38,1-.2,5.19-1.46,11.14-3a2.31,2.31,0,0,1,2.94,1.94c.94,8.68,3.57,23.18,11.15,36a6.11,6.11,0,0,0,4.91,3.24c3.78.34,13.45-6,15.18-9.2a5.47,5.47,0,0,0-1.87-7.49c-.82-.48-1.7-.85-3.06-1.76-2.07-1.4-3.36-4-2.79-7.61.84-5.21-2.37-5.34-4.6-10a7.14,7.14,0,0,1-.38-6.48,6.92,6.92,0,0,1,5-3.82,97.3,97.3,0,0,1,18.36-.84c23.76,1.52,36.8,7.19,39.77,7.59a8.83,8.83,0,0,0,4.36-.22h0c.15,0,.31-.08.46-.13,9.75-3.41,8.94-31-1.82-61.65S99.76,20.75,90,24.16Zm-6.74,21.6c.07,1.7.21,3.47.39,5.31C83.47,49.23,83.33,47.45,83.26,45.76Zm1.22,11.7A150.89,150.89,0,0,0,87.9,73.19,150.72,150.72,0,0,1,84.48,57.46Zm14.06,44.85a177.77,177.77,0,0,1-6.72-16.5c-1.5-4.28-2.8-8.5-3.92-12.6a15.49,15.49,0,0,1,10.64,29.1ZM486.32,72.87c-16.91,0-28.27,14.07-28.27,35,0,21.92,10.57,35,28.27,35,17.44,0,28.27-13.41,28.27-35C514.6,86,504,72.87,486.32,72.87ZM498.16,123c-2.53,5.61-6.4,8.46-11.63,8.46h0c-9.75,0-14.91-8.14-14.94-23.53,0-10.88,3.55-16.73,6.55-19.72,2.83-2.82,5.85-3.82,7.73-3.82h.21c9.94.41,15,8.33,15,23.53C501.05,110.48,500.77,117.16,498.16,123ZM437,74.23H425.86a3.63,3.63,0,0,0-3.5,2.66L409.42,124.3h-.15L396.46,76.61a3.62,3.62,0,0,0-3.5-2.67l-11.81.66a3.6,3.6,0,0,0-3.42,3.61c0,3.63,0,9-.31,14.12-.38,6.79-3.12,36.37-3.95,45.27a3.59,3.59,0,0,0,.93,2.75,3.64,3.64,0,0,0,2.68,1.17H384a3.63,3.63,0,0,0,3.62-3.52l1.07-45.51,12.73,46.37a3.63,3.63,0,0,0,3.49,2.65h7.58a3.63,3.63,0,0,0,3.49-2.63L429,92.5h.11L430.61,138a3.59,3.59,0,0,0,3.62,3.48h6.92a3.65,3.65,0,0,0,2.65-1.14,3.6,3.6,0,0,0,1-2.7l-4.13-60.09A3.62,3.62,0,0,0,437,74.23ZM577.9,74l-6.48.48a3.59,3.59,0,0,0-2.52,1.29,3.54,3.54,0,0,0-.81,2.69c.27,2.46.66,6.58,1,12.22.35,6.29.74,25.47.84,30.34L544.54,75.8A3.6,3.6,0,0,0,541.09,74l-7.37.57a3.61,3.61,0,0,0-3.33,3.83c.2,2.81.5,7.24.72,11,.3,5.16.19,38.45.14,48.53a3.55,3.55,0,0,0,1,2.54,3.62,3.62,0,0,0,2.57,1.06h5.45a3.61,3.61,0,0,0,3.62-3.6V120l-.8-24.65,25.35,44.83a3.63,3.63,0,0,0,3.15,1.84h.31l6.53-.56a3.59,3.59,0,0,0,3.31-3.59V77.64A3.63,3.63,0,0,0,577.9,74ZM203,74.23H183.4a3.64,3.64,0,0,0-2.68,1.17,3.58,3.58,0,0,0-.93,2.74c.36,4.05.82,10.62.93,18.92.08,6.28-.11,32.84-.17,40.84a3.56,3.56,0,0,0,1,2.56,3.61,3.61,0,0,0,2.57,1.06h6.17a3.61,3.61,0,0,0,3.62-3.6V121.25a2.19,2.19,0,0,1,2.63-2.11,35.93,35.93,0,0,0,8.42,1c13.64,0,22.81-9.36,22.81-23.3C227.82,83.09,218.09,74.23,203,74.23Zm.32,34.6a38.37,38.37,0,0,1-7.64-.8,2.18,2.18,0,0,1-1.73-2.12V87.66a2.17,2.17,0,0,1,2.17-2.16h6.15c4.09,0,7.19,1,9.22,3.07s2.83,4.71,2.78,8.32S213.07,108.83,203.34,108.83Zm128.93-36c-16.91,0-28.28,14.07-28.28,35,0,21.92,10.57,35,28.28,35,17.44,0,28.27-13.41,28.27-35C360.54,86,350,72.87,332.26,72.87Zm.17,58.54-.79,0h0c-9,0-14.11-8.58-14.11-23.55,0-7.68,3.49-23.53,14.29-23.53H332c9.79.19,15,8.33,15,23.53C347,118.26,344.47,130.76,332.43,131.41Zm-40.31,7.37a130.23,130.23,0,0,1-13.55-19.71,2.22,2.22,0,0,1-.2-1.71,2,2,0,0,1,1-1.22c7.11-3.74,11-10.72,11-19.65,0-13.73-9.5-22.25-24.8-22.25h-20a3.41,3.41,0,0,0-3.41,3.69c.38,4.43,1,12.83,1,19.3,0,8.35-.2,37.58-.23,40.88a3.36,3.36,0,0,0,1,2.41,3.42,3.42,0,0,0,2.43,1h6.38a3.61,3.61,0,0,0,3.62-3.6V120.07A2.17,2.17,0,0,1,259,118a36.73,36.73,0,0,0,4.84.75,2.14,2.14,0,0,1,1.79,1.35,109.6,109.6,0,0,0,11,20.42,3.64,3.64,0,0,0,3,1.6h.15l11.62-.5a1.38,1.38,0,0,0,1.07-2.28Zm-26.22-31h-.21a35,35,0,0,1-7.59-.86,2.17,2.17,0,0,1-1.67-2.11V87.66a2.17,2.17,0,0,1,2.17-2.16H265c4.14,0,7.23,1,9.19,3,1.81,1.81,2.72,4.51,2.7,8C276.84,99.12,276,107.72,265.9,107.79Zm13.82,33.58h0ZM185.42,10.94l-6.3-3.57,3.46-2.74c2.85-2.26-1.17-6.21-4-4l-6.48,5.13c-1.44,1.14-.88,3.6.57,4.42l6.15,3.48-7.69,5.62c-2.9,2.12-.09,7,2.85,4.86l11.44-8.37C187.06,14.61,187.42,12.07,185.42,10.94ZM159.85,25.41l-10.63-6,5.7-4.51c5.34-4.23-2.2-11.65-7.48-7.46l-11.36,9c-2.7,2.14-1.65,6.75,1.07,8.29l10.33,5.84-13,9.54c-5.44,4-.17,13.15,5.34,9.11l20.06-14.68C162.92,32.27,163.59,27.52,159.85,25.41Z"/></g></g></svg>